inDegrees=no
num_controls=7
num_derivatives=13
num_iterations=152
num_multipliers=7
num_parameters=0
num_slacks=7
num_states=26
objective=5.671391
objective_accelerations=0.745057
objective_balance=0.045466
objective_effort=0.265592
objective_height=4.592196
objective_ligament=0.023080
solver_duration=1670.687974
status=Solve_Succeeded
success=true
DataType=double
version=3
OpenSimVersion=4.4-2022-07-23-0e9fedc
endheader
time	/jointset/ground_pelvis/pelvis_tilt/value	/jointset/ground_pelvis/pelvis_tx/value	/jointset/ground_pelvis/pelvis_ty/value	/jointset/hip_l/hip_flexion_l/value	/jointset/hip_l/hip_adduction_l/value	/jointset/hip_l/hip_rotation_l/value	/jointset/back/lumbar_extension/value	/jointset/patellofemoral_l/patellar_flexion_l/value	/jointset/knee_l/knee_flexion_l/value	/jointset/knee_l/knee_adduction_l/value	/jointset/knee_l/knee_rotation_l/value	/jointset/ankle_l/ankle_angle_l/value	/jointset/subtalar_l/subtalar_angle_l/value	/jointset/ground_pelvis/pelvis_tilt/speed	/jointset/ground_pelvis/pelvis_tx/speed	/jointset/ground_pelvis/pelvis_ty/speed	/jointset/hip_l/hip_flexion_l/speed	/jointset/hip_l/hip_adduction_l/speed	/jointset/hip_l/hip_rotation_l/speed	/jointset/back/lumbar_extension/speed	/jointset/patellofemoral_l/patellar_flexion_l/speed	/jointset/knee_l/knee_flexion_l/speed	/jointset/knee_l/knee_adduction_l/speed	/jointset/knee_l/knee_rotation_l/speed	/jointset/ankle_l/ankle_angle_l/speed	/jointset/subtalar_l/subtalar_angle_l/speed	/forceset/tau_hip_flexion_l	/forceset/tau_hip_adduction_l	/forceset/tau_hip_rotation_l	/forceset/tau_knee_flexion_l	/forceset/tau_ankle_angle_l	/forceset/tau_subtalar_angle_l	/forceset/tau_lumbar_extension	lambda_cid13_p0	lambda_cid13_p1	lambda_cid13_p2	lambda_cid13_p3	lambda_cid13_p4	lambda_cid13_p5	lambda_cid14_p0	/jointset/ground_pelvis/pelvis_tilt/accel	/jointset/ground_pelvis/pelvis_tx/accel	/jointset/ground_pelvis/pelvis_ty/accel	/jointset/hip_l/hip_flexion_l/accel	/jointset/hip_l/hip_adduction_l/accel	/jointset/hip_l/hip_rotation_l/accel	/jointset/back/lumbar_extension/accel	/jointset/patellofemoral_l/patellar_flexion_l/accel	/jointset/knee_l/knee_flexion_l/accel	/jointset/knee_l/knee_adduction_l/accel	/jointset/knee_l/knee_rotation_l/accel	/jointset/ankle_l/ankle_angle_l/accel	/jointset/subtalar_l/subtalar_angle_l/accel	gamma_cid13_p0	gamma_cid13_p1	gamma_cid13_p2	gamma_cid13_p3	gamma_cid13_p4	gamma_cid13_p5	gamma_cid14_p0
1	-0.4173343239026516	0.003713638126484997	0.5728494996885023	1.650637906081017	-0.487788583014347	0.003311464141044046	-0.2617873910167555	1.528090336727696	1.528090336727675	-0.008935867133029879	-0.1745262144066264	0.4362539752883955	0.1111233602107714	-0.0174226463207004	0.008486401598186481	0.0009147986410551582	0.0008952239171823443	-0.003282752847645048	0.002623207824972402	-2.310370511702568e-05	-0.000373661971492909	-0.0003736619714936489	-0.005868637692537482	-3.67564339472465e-05	0.01541618956598236	0.007505683646563679	-0.2680165709895266	0.05657964147069409	-0.003235698619865486	-0.3559763952957647	-0.07552487669525104	0.0172493522219864	0.2433605889387535	-64.13078141972984	5.935443955292448	-3.79283687570447	17.24766372542697	-642.7661738395899	-50.04259675420086	-0.02982698810782314	1.098984117367045	-0.02851382391704076	2.008527839940356	-6.114428594548967	0.2140507896612806	-2.242504869001968	-0.01625920986761537	-5.803857901149221	-5.803857901149237	-0.8812105801768805	-0.02955956809452788	-1.560867527440071	-0.9200303636089042	1.881969670320474e-09	1.759081586561299e-08	-1.182655779796678e-08	3.629734319971e-09	-7.261740834184072e-10	3.273194600791737e-08	5.614922068159837e-11
1.01	-0.4174542958509495	0.003797068504224931	0.5729589270863227	1.650342171762487	-0.4878099537889179	0.00322567431072256	-0.2617876516062821	1.527796691698411	1.527796691698394	-0.009037388520019608	-0.1745263652965078	0.4363303198442943	0.1111538767200607	-0.006571038505664624	0.0082031538347818	0.02096660263150946	-0.06003438316234178	-0.0009919104208009671	-0.0197794801430341	-2.854203014042368e-05	-0.0583505297484477	-0.05835052974844961	-0.01443571078927683	1.553345558101966e-06	-0.0001501339872698802	-0.001405551387649477	-0.2679261816894344	0.05660196216730187	-0.00322908767520439	-0.3558131699681903	-0.07552149848890985	0.01726903670836211	0.2432924822693761	-64.11432514121047	5.916151151654235	-3.780780379707126	17.14426617290841	-642.6004247141124	-50.05022397054326	-0.02983114800580761	1.078353832639319	-0.02770883634215039	2.002893291746166	-6.081072225535305	0.2365256080499715	-2.238902229729786	0.00738468193460576	-5.793877249871891	-5.793877249872065	-0.8444713545085545	0.01977512458665578	-1.55494486261447	-0.8771446852509731	-7.504878072454321e-09	-1.10494131654023e-08	9.230320622737729e-09	-2.76803185738208e-09	-8.141117025428876e-09	3.751403087606964e-08	-9.136206698330766e-09
1.02	-0.4174657307772938	0.003877770687572759	0.5732687498466784	1.64943737228097	-0.4878084312114545	0.002915907306911669	-0.2617879524139036	1.526923422784576	1.526923422784562	-0.009224583773932258	-0.1745262833143882	0.4362509151463341	0.1110951859566216	0.004284758072075573	0.007940762719765404	0.04099387114795577	-0.120917808677097	0.001295917560213249	-0.04217222687223465	-3.114732496834168e-05	-0.1162984388815307	-0.1162984388815336	-0.02300341108947129	9.818069606506627e-06	-0.01573366127437916	-0.01033577089879655	-0.2678357923893899	0.05662428286386128	-0.003222476730296765	-0.3556499446406075	-0.07551812028257605	0.01728872119464428	0.2432243755999524	-64.10551487133692	5.897304861045583	-3.767775667678388	17.07701192009398	-642.5533010777636	-50.04928838211538	-0.02983634168239321	1.099821869907856	-0.02434249423938586	2.00362074513879	-6.105192281595203	0.2134479004955165	-2.240516621240578	-0.01569260382841425	-5.798066172374952	-5.798066172374941	-0.8813360208678385	-0.03556857918541637	-1.564308274211448	-0.9238272589953085	-1.599599399184179e-08	-3.62142058147792e-08	3.040226029082549e-08	-8.250874446532941e-09	-1.523559859410338e-08	4.412860695355626e-08	-1.772912147876929e-08
1.03	-0.4173685448224903	0.003955980536039642	0.5737786456833588	1.647924115578325	-0.4877839870293859	0.002382348150728859	-0.2617882819701046	1.525470911452522	1.525470911452522	-0.009497381540458502	-0.1745262055359382	0.4360155375533462	0.1109471839930412	0.01515703419792573	0.007707395744544867	0.06097355478954822	-0.1817111266840166	0.003598746428999135	-0.06452704113503593	-3.569656693597394e-05	-0.1741898633528181	-0.1741898633528137	-0.0315501111720286	8.552005445169091e-06	-0.03134965474687083	-0.01925829061020942	-0.2675056738501037	0.05663023904711712	-0.003222997132297874	-0.3552544347091806	-0.07536865104097855	0.01736460440184739	0.2429833568110721	-64.02259704561374	5.82506951107978	-3.727976515144015	16.92825059075962	-642.1674174861339	-50.09950581246466	-0.02985189665919978	1.081618510823765	-0.02190826129063674	1.993376455570949	-6.063043250119082	0.2395708645106549	-2.231096969396005	0.007024017832303761	-5.782580642776752	-5.782580642775655	-0.8404481487740738	0.01802648302952598	-1.561420509219478	-0.8755105858931611	-2.447796979058244e-08	-6.134353482760875e-08	5.157537405327431e-08	-1.372438108070214e-08	-2.232681014876425e-08	5.076188192093405e-08	-2.631591951289584e-08
1.04	-0.41716249850106	0.004032041822328651	0.5744879852128364	1.645803597357629	-0.4877363404617457	0.001625614223846835	-0.2617886849982473	1.5234399058641	1.523439905864105	-0.009855468537079666	-0.1745260539973879	0.4356237649005018	0.1107101475806096	0.02605683139978346	0.007511050284190596	0.08088260970726062	-0.2423701122860746	0.00593639467537932	-0.08680718102168157	-4.584172035155176e-05	-0.2319972901549468	-0.2319972901549351	-0.04006125712756894	2.457006372261675e-05	-0.04701267323740948	-0.02814266066877273	-0.2671755553107849	0.05663619523048031	-0.00322351753389	-0.3548589247777325	-0.07521918179935033	0.01744048760925088	0.2427423380222071	-63.94739835234037	5.753344654121086	-3.687297818266991	16.81569870759767	-641.9006109965436	-50.14132921377787	-0.02986855462514799	1.105326085109246	-0.01693819126603327	1.989495000362796	-6.078325800622949	0.2204117760142797	-2.225581746009491	-0.01681178611783168	-5.781266638543208	-5.781266638543208	-0.8742251954645289	-0.03211175469779757	-1.573713277820672	-0.9161973284254126	-3.390613791131368e-08	-8.849935317743591e-08	7.45089019672478e-08	-1.906758281140193e-08	-2.970916088264532e-08	5.777798074814451e-08	-3.564961268362424e-08
1.05	-0.4168472824172635	0.004106369808254926	0.5753959830298044	1.643077286448583	-0.4876651857568227	0.0006464290711333847	-0.2617892023977271	1.520831347266307	1.520831347266306	-0.01029844755786908	-0.1745258211343915	0.4350750877394258	0.1103843835034047	0.03699371445638587	0.007365171312119239	0.1006973184873964	-0.3028568538150472	0.008297108558356673	-0.1090156741256676	-5.639849418970223e-05	-0.2896903708167274	-0.2896903708167293	-0.04852723300583718	1.138307164790748e-05	-0.06273410076421659	-0.03700930537253054	-0.2665862782806203	0.05658347416437738	-0.003230998526565077	-0.354273941258734	-0.07484559834384114	0.01757568030669648	0.2423217968663703	-63.77214572825146	5.621399263290843	-3.617664723338837	16.5833603786595	-641.2967060428502	-50.24191710910265	-0.0298941076559769	1.088965377218944	-0.01182402362982045	1.974506042252844	-6.028569855035255	0.2442771014545064	-2.216387556374623	0.007008329830489512	-5.759710896190737	-5.759710896192779	-0.8317141548748104	0.01250282148791861	-1.573069477185871	-0.8717630686382106	-4.33638745421071e-08	-1.157184993190442e-07	9.749744282345644e-08	-2.44067125138683e-08	-3.710060971587703e-08	6.480604282097474e-08	-4.500664632737144e-08
